<svg xmlns="http://www.w3.org/2000/svg" viewBox="0 0 400 400" width="400" height="400">
  <rect width="400" height="400" fill="white"/>
  <!-- Vase -->
  <path d="M145,290 Q135,340 130,370 L270,370 Q265,340 255,290 Z" fill="white" stroke="black" stroke-width="4" stroke-linejoin="round"/>
  <ellipse cx="200" cy="290" rx="57" ry="18" fill="white" stroke="black" stroke-width="4"/>
  <path d="M140,370 L260,370" stroke="black" stroke-width="4"/>
  <!-- Vase decorations -->
  <path d="M148,320 Q200,312 252,320" fill="none" stroke="black" stroke-width="2"/>
  <path d="M144,340 Q200,332 256,340" fill="none" stroke="black" stroke-width="2"/>
  <!-- Stems -->
  <line x1="200" y1="290" x2="200" y2="180" stroke="black" stroke-width="3"/>
  <line x1="200" y1="250" x2="160" y2="200" stroke="black" stroke-width="3"/>
  <line x1="200" y1="250" x2="240" y2="200" stroke="black" stroke-width="3"/>
  <line x1="200" y1="230" x2="155" y2="160" stroke="black" stroke-width="3"/>
  <line x1="200" y1="230" x2="245" y2="160" stroke="black" stroke-width="3"/>
  <line x1="200" y1="260" x2="130" y2="230" stroke="black" stroke-width="3"/>
  <line x1="200" y1="260" x2="270" y2="230" stroke="black" stroke-width="3"/>
  <!-- Leaves -->
  <ellipse cx="175" cy="225" rx="14" ry="7" fill="white" stroke="black" stroke-width="2" transform="rotate(-40 175 225)"/>
  <ellipse cx="225" cy="225" rx="14" ry="7" fill="white" stroke="black" stroke-width="2" transform="rotate(40 225 225)"/>
  <!-- Big center flower -->
  <circle cx="200" cy="160" r="28" fill="white" stroke="black" stroke-width="3"/>
  <circle cx="200" cy="160" r="12" fill="white" stroke="black" stroke-width="2.5"/>
  <!-- Center flower petals -->
  <ellipse cx="200" cy="130" rx="10" ry="16" fill="white" stroke="black" stroke-width="2.5"/>
  <ellipse cx="200" cy="190" rx="10" ry="16" fill="white" stroke="black" stroke-width="2.5"/>
  <ellipse cx="170" cy="160" rx="16" ry="10" fill="white" stroke="black" stroke-width="2.5"/>
  <ellipse cx="230" cy="160" rx="16" ry="10" fill="white" stroke="black" stroke-width="2.5"/>
  <ellipse cx="179" cy="139" rx="10" ry="16" fill="white" stroke="black" stroke-width="2.5" transform="rotate(-45 179 139)"/>
  <ellipse cx="221" cy="139" rx="10" ry="16" fill="white" stroke="black" stroke-width="2.5" transform="rotate(45 221 139)"/>
  <ellipse cx="179" cy="181" rx="10" ry="16" fill="white" stroke="black" stroke-width="2.5" transform="rotate(45 179 181)"/>
  <ellipse cx="221" cy="181" rx="10" ry="16" fill="white" stroke="black" stroke-width="2.5" transform="rotate(-45 221 181)"/>
  <!-- Left small flower -->
  <circle cx="153" cy="190" r="18" fill="white" stroke="black" stroke-width="3"/>
  <circle cx="153" cy="190" r="8" fill="white" stroke="black" stroke-width="2"/>
  <ellipse cx="153" cy="170" rx="7" ry="11" fill="white" stroke="black" stroke-width="2"/>
  <ellipse cx="153" cy="210" rx="7" ry="11" fill="white" stroke="black" stroke-width="2"/>
  <ellipse cx="133" cy="190" rx="11" ry="7" fill="white" stroke="black" stroke-width="2"/>
  <ellipse cx="173" cy="190" rx="11" ry="7" fill="white" stroke="black" stroke-width="2"/>
  <!-- Right small flower -->
  <circle cx="247" cy="190" r="18" fill="white" stroke="black" stroke-width="3"/>
  <circle cx="247" cy="190" r="8" fill="white" stroke="black" stroke-width="2"/>
  <ellipse cx="247" cy="170" rx="7" ry="11" fill="white" stroke="black" stroke-width="2"/>
  <ellipse cx="247" cy="210" rx="7" ry="11" fill="white" stroke="black" stroke-width="2"/>
  <ellipse cx="227" cy="190" rx="11" ry="7" fill="white" stroke="black" stroke-width="2"/>
  <ellipse cx="267" cy="190" rx="11" ry="7" fill="white" stroke="black" stroke-width="2"/>
  <!-- Left tall daisy -->
  <circle cx="148" cy="145" r="15" fill="white" stroke="black" stroke-width="2.5"/>
  <circle cx="148" cy="145" r="6" fill="white" stroke="black" stroke-width="2"/>
  <ellipse cx="148" cy="128" rx="6" ry="10" fill="white" stroke="black" stroke-width="2"/>
  <ellipse cx="148" cy="162" rx="6" ry="10" fill="white" stroke="black" stroke-width="2"/>
  <ellipse cx="131" cy="145" rx="10" ry="6" fill="white" stroke="black" stroke-width="2"/>
  <ellipse cx="165" cy="145" rx="10" ry="6" fill="white" stroke="black" stroke-width="2"/>
  <!-- Right tall daisy -->
  <circle cx="252" cy="145" r="15" fill="white" stroke="black" stroke-width="2.5"/>
  <circle cx="252" cy="145" r="6" fill="white" stroke="black" stroke-width="2"/>
  <ellipse cx="252" cy="128" rx="6" ry="10" fill="white" stroke="black" stroke-width="2"/>
  <ellipse cx="252" cy="162" rx="6" ry="10" fill="white" stroke="black" stroke-width="2"/>
  <ellipse cx="235" cy="145" rx="10" ry="6" fill="white" stroke="black" stroke-width="2"/>
  <ellipse cx="269" cy="145" rx="10" ry="6" fill="white" stroke="black" stroke-width="2"/>
  <!-- Label -->
  <text x="200" y="395" text-anchor="middle" font-family="Arial" font-size="18" fill="black">🌸 Flowers</text>
</svg>
